<?xml version="1.0" encoding="utf-8"?>
<!-- Generator: Adobe Illustrator 24.2.0, SVG Export Plug-In . SVG Version: 6.00 Build 0)  -->
<svg version="1.1" id="Layer_1" xmlns="http://www.w3.org/2000/svg" xmlns:xlink="http://www.w3.org/1999/xlink" x="0px" y="0px"
	 viewBox="0 0 159.749 84.389" enable-background="new 0 0 159.749 84.389" xml:space="preserve">
<g>
	<path fill="#FFFFFF" d="M101.542,32.545h7.138v7.239h-7.162v-7.162C101.515,32.585,101.513,32.55,101.542,32.545"/>
	<path fill="#FFFFFF" d="M101.542,25.307h7.138v7.239h-7.162v-7.162C101.515,25.346,101.513,25.311,101.542,25.307"/>
	<path fill="#FFFFFF" d="M101.542,18.067h7.138v7.239h-7.162v-7.162C101.515,18.107,101.513,18.072,101.542,18.067"/>
	<path fill="#FFFFFF" d="M108.706,18.067h7.139v7.239h-7.163v-7.162C108.679,18.107,108.677,18.072,108.706,18.067"/>
	<path fill="#FFFFFF" d="M115.871,18.067h7.138v7.239h-7.163v-7.162C115.843,18.107,115.842,18.072,115.871,18.067"/>
	<path fill="#FFFFFF" d="M123.036,18.067h7.139v7.239h-7.163v-7.162C123.008,18.107,123.006,18.072,123.036,18.067"/>
	<path fill="#FFFFFF" d="M101.542,10.829h7.138v7.239h-7.162v-7.162C101.515,10.869,101.513,10.833,101.542,10.829"/>
	<path fill="#FFFFFF" d="M101.542,3.589h7.138v7.239h-7.162V3.666C101.515,3.629,101.513,3.594,101.542,3.589"/>
	<path fill="#FFFFFF" d="M65.72,32.545h7.138v7.239h-7.163v-7.162C65.692,32.585,65.691,32.55,65.72,32.545"/>
	<path fill="#FFFFFF" d="M65.72,25.307h7.138v7.239h-7.163v-7.162C65.692,25.346,65.691,25.311,65.72,25.307"/>
	<path fill="#FFFFFF" d="M65.72,18.067h7.138v7.239h-7.163v-7.162C65.692,18.107,65.691,18.072,65.72,18.067"/>
	<path fill="#FFFFFF" d="M65.72,10.829h7.138v7.239h-7.163v-7.162C65.692,10.869,65.691,10.833,65.72,10.829"/>
	<path fill="#FFFFFF" d="M65.72,3.589h7.138v7.239h-7.163V3.666C65.692,3.629,65.691,3.594,65.72,3.589"/>
	<path fill="#FFFFFF" d="M37.062,32.545h7.139v7.239h-7.163v-7.162C37.035,32.585,37.033,32.55,37.062,32.545"/>
	<path fill="#FFFFFF" d="M29.898,25.307h7.138v7.239h-7.163v-7.162C29.87,25.346,29.868,25.311,29.898,25.307"/>
	<path fill="#FFFFFF" d="M29.898,18.067h7.138v7.239h-7.163v-7.162C29.87,18.107,29.868,18.072,29.898,18.067"/>
	<path fill="#FFFFFF" d="M29.898,10.829h7.138v7.239h-7.163v-7.162C29.87,10.869,29.868,10.833,29.898,10.829"/>
	<path fill="#FFFFFF" d="M51.391,25.307h7.138v7.239h-7.162v-7.162C51.364,25.346,51.362,25.311,51.391,25.307"/>
	<path fill="#FFFFFF" d="M51.391,10.829h7.138v7.239h-7.162v-7.162C51.364,10.869,51.362,10.833,51.391,10.829"/>
	<path fill="#FFFFFF" d="M37.062,3.589h7.139v7.239h-7.163V3.666C37.035,3.629,37.033,3.594,37.062,3.589"/>
	<path fill="#FFFFFF" d="M44.226,32.545h7.139v7.239h-7.163v-7.162C44.199,32.585,44.197,32.55,44.226,32.545"/>
	<path fill="#FFFFFF" d="M44.226,3.589h7.139v7.239h-7.163V3.666C44.199,3.629,44.197,3.594,44.226,3.589"/>
	<path fill="#FFFFFF" d="M72.884,18.067h7.139v7.239H72.86v-7.162C72.857,18.107,72.855,18.072,72.884,18.067"/>
	<path fill="#FFFFFF" d="M72.884,3.589h7.139v7.239H72.86V3.666C72.857,3.629,72.855,3.594,72.884,3.589"/>
	<path fill="#FFFFFF" d="M80.049,18.067h7.138v7.239h-7.163v-7.162C80.021,18.107,80.019,18.072,80.049,18.067"/>
	<path fill="#FFFFFF" d="M80.049,3.589h7.138v7.239h-7.163V3.666C80.021,3.629,80.019,3.594,80.049,3.589"/>
	<path fill="#FFFFFF" d="M87.213,10.829h7.139v7.239h-7.163v-7.162C87.186,10.869,87.184,10.833,87.213,10.829"/>
	<path fill="#FFFFFF" d="M123.036,32.545h7.139v7.239h-7.163v-7.162C123.008,32.585,123.006,32.55,123.036,32.545"/>
	<path fill="#FFFFFF" d="M123.036,25.307h7.139v7.239h-7.163v-7.162C123.008,25.346,123.006,25.311,123.036,25.307"/>
	<path fill="#FFFFFF" d="M123.036,10.829h7.139v7.239h-7.163v-7.162C123.008,10.869,123.006,10.833,123.036,10.829"/>
	<path fill="#FFFFFF" d="M123.036,3.589h7.139v7.239h-7.163V3.666C123.008,3.629,123.006,3.594,123.036,3.589"/>
	<path fill="#FFFFFF" d="M16.45,80.429l-4.073-8.211H7.783v8.211H3.221V57.62h10.623c1.063,0,2.073,0.146,3.03,0.44
		c0.956,0.293,1.792,0.745,2.509,1.352c0.718,0.607,1.281,1.363,1.694,2.266c0.412,0.9,0.618,1.96,0.618,3.176
		c0,1.717-0.363,3.123-1.09,4.22c-0.728,1.099-1.82,1.929-3.276,2.493l4.366,8.863H16.45z M17.005,64.951
		c0-1.043-0.288-1.787-0.864-2.232c-0.576-0.445-1.374-0.668-2.396-0.668H7.783v5.865h5.962
		C15.917,67.917,17.005,66.928,17.005,64.951"/>
	<path fill="#FFFFFF" d="M34.209,80.428v-1.14c-0.413,0.435-0.956,0.793-1.629,1.075c-0.675,0.283-1.412,0.423-2.216,0.423
		c-0.804,0-1.587-0.125-2.345-0.374c-0.761-0.25-1.441-0.625-2.038-1.124c-0.598-0.5-1.081-1.13-1.45-1.89
		c-0.37-0.761-0.554-1.661-0.554-2.704c0-0.936,0.18-1.761,0.538-2.478c0.358-0.717,0.852-1.309,1.482-1.774
		c0.63-0.468,1.363-0.821,2.2-1.061c0.836-0.238,1.743-0.357,2.721-0.357c0.782,0,1.434,0.069,1.955,0.212
		c0.522,0.141,0.966,0.298,1.336,0.472v-0.847c0-0.609-0.201-1.124-0.604-1.548c-0.401-0.424-1.015-0.636-1.839-0.636
		c-0.523,0-0.984,0.021-1.386,0.064c-0.402,0.044-0.781,0.109-1.141,0.196c-0.357,0.087-0.711,0.201-1.058,0.343
		c-0.348,0.141-0.717,0.319-1.109,0.538l-1.726-3.129c0.499-0.282,0.982-0.533,1.449-0.749c0.468-0.219,0.957-0.398,1.468-0.538
		c0.509-0.143,1.048-0.25,1.613-0.327c0.563-0.075,1.193-0.114,1.89-0.114c1.042,0,1.986,0.131,2.834,0.393
		c0.847,0.26,1.575,0.646,2.183,1.155c0.608,0.512,1.08,1.142,1.417,1.892c0.337,0.749,0.505,1.602,0.505,2.558v11.469H34.209z
		 M34.209,73.26c-0.392-0.238-0.81-0.419-1.255-0.538c-0.444-0.118-1.07-0.18-1.873-0.18c-0.848,0-1.494,0.187-1.938,0.555
		c-0.447,0.37-0.669,0.901-0.669,1.598c0,0.607,0.196,1.14,0.587,1.596c0.391,0.456,1.064,0.685,2.02,0.685
		c0.738,0,1.385-0.156,1.939-0.473c0.553-0.313,0.95-0.679,1.189-1.092V73.26z"/>
	<path fill="#FFFFFF" d="M47.893,59.345c0,0.696-0.255,1.299-0.764,1.811c-0.511,0.51-1.115,0.765-1.809,0.765
		c-0.696,0-1.298-0.255-1.808-0.765c-0.511-0.512-0.766-1.114-0.766-1.811c0-0.693,0.255-1.297,0.766-1.808
		c0.51-0.509,1.112-0.766,1.808-0.766c0.694,0,1.298,0.257,1.809,0.766C47.639,58.048,47.893,58.652,47.893,59.345 M43.072,63.323
		h4.498v17.105h-4.498V63.323z"/>
	<polygon fill="#FFFFFF" points="52.261,80.428 52.261,58.922 56.758,56.674 56.758,80.428 	"/>
	<path fill="#FFFFFF" d="M74.81,75.443c0,0.979-0.186,1.81-0.554,2.493c-0.37,0.686-0.87,1.238-1.5,1.662
		c-0.631,0.423-1.368,0.728-2.215,0.912c-0.847,0.184-1.749,0.277-2.705,0.277c-1.368,0-2.677-0.18-3.926-0.537
		c-1.25-0.359-2.329-0.843-3.243-1.451l1.5-3.421c0.912,0.501,1.851,0.885,2.819,1.156c0.966,0.272,2.004,0.407,3.111,0.407
		c0.891,0,1.493-0.107,1.809-0.326c0.314-0.216,0.471-0.542,0.471-0.977c0-0.391-0.178-0.706-0.537-0.945
		c-0.359-0.237-1.015-0.5-1.971-0.781c-1.021-0.305-1.95-0.614-2.787-0.93c-0.835-0.313-1.547-0.684-2.133-1.106
		c-0.586-0.425-1.037-0.94-1.353-1.549c-0.314-0.607-0.472-1.367-0.472-2.28c0-0.892,0.168-1.658,0.505-2.298
		c0.336-0.642,0.809-1.167,1.417-1.58c0.609-0.413,1.331-0.718,2.167-0.913c0.837-0.195,1.755-0.293,2.753-0.293
		c1.087,0,2.184,0.152,3.292,0.457c1.108,0.303,2.117,0.706,3.031,1.205l-1.436,3.551c-0.847-0.455-1.711-0.797-2.59-1.026
		c-0.88-0.228-1.679-0.342-2.395-0.342c-0.912,0-1.527,0.093-1.84,0.278c-0.317,0.184-0.474,0.461-0.474,0.831
		c0,0.173,0.044,0.331,0.131,0.471c0.087,0.142,0.255,0.284,0.505,0.424c0.249,0.143,0.607,0.299,1.076,0.473
		c0.466,0.175,1.079,0.382,1.84,0.619c0.761,0.262,1.488,0.532,2.183,0.814c0.696,0.284,1.304,0.63,1.825,1.043
		c0.522,0.413,0.933,0.918,1.238,1.515C74.657,73.875,74.81,74.596,74.81,75.443"/>
	<path fill="#FFFFFF" d="M106.22,75.51c-0.456,1.145-1.092,2.108-1.906,2.894c-0.815,0.782-1.781,1.377-2.9,1.779
		c-1.118,0.402-2.34,0.604-3.666,0.604c-1.498,0-2.856-0.276-4.071-0.831c-1.218-0.553-2.266-1.341-3.144-2.361
		c-0.88-1.021-1.56-2.254-2.037-3.698c-0.479-1.444-0.718-3.068-0.718-4.871c0-1.738,0.25-3.329,0.75-4.774
		c0.499-1.444,1.194-2.683,2.087-3.715c0.889-1.032,1.953-1.836,3.191-2.411c1.238-0.575,2.607-0.864,4.106-0.864
		c1.173,0,2.21,0.131,3.111,0.393c0.901,0.26,1.7,0.641,2.396,1.14c0.696,0.499,1.297,1.104,1.809,1.808
		c0.51,0.706,0.949,1.494,1.319,2.362l-4.333,1.792c-0.219-0.412-0.452-0.803-0.701-1.173c-0.25-0.368-0.544-0.683-0.88-0.944
		c-0.337-0.261-0.733-0.467-1.19-0.619c-0.456-0.152-0.988-0.229-1.596-0.229c-0.848,0-1.606,0.18-2.28,0.538
		c-0.675,0.358-1.238,0.858-1.695,1.498c-0.456,0.642-0.804,1.403-1.043,2.282c-0.239,0.881-0.358,1.853-0.358,2.917
		c0,1.042,0.118,2.009,0.358,2.898c0.239,0.893,0.593,1.662,1.059,2.315c0.466,0.65,1.037,1.162,1.711,1.53
		c0.673,0.369,1.434,0.555,2.281,0.555c0.781,0,1.445-0.087,1.987-0.261c0.543-0.174,0.982-0.412,1.319-0.718
		c0.337-0.304,0.598-0.668,0.782-1.091c0.185-0.424,0.31-0.885,0.374-1.386h-3.616v-4.3h8.178v3.005
		C106.904,73.055,106.676,74.367,106.22,75.51"/>
	<path fill="#FFFFFF" d="M115.963,59.345c0,0.696-0.256,1.299-0.766,1.811c-0.511,0.51-1.114,0.765-1.81,0.765
		c-0.694,0-1.298-0.255-1.808-0.765c-0.511-0.512-0.766-1.114-0.766-1.811c0-0.693,0.255-1.297,0.766-1.808
		c0.51-0.509,1.113-0.766,1.808-0.766c0.695,0,1.299,0.257,1.81,0.766C115.707,58.048,115.963,58.652,115.963,59.345 M111.14,63.323
		h4.497v17.105h-4.497V63.323z"/>
	<path fill="#FFFFFF" d="M130.17,68.568c-0.37-0.326-0.771-0.592-1.206-0.799c-0.435-0.205-0.902-0.309-1.401-0.309
		c-0.435,0-0.83,0.054-1.189,0.163c-0.359,0.108-0.662,0.304-0.912,0.587c-0.251,0.282-0.445,0.662-0.587,1.14
		c-0.141,0.478-0.212,1.086-0.212,1.824v9.254h-4.496V63.322h4.496v1.142c0.391-0.414,0.875-0.768,1.45-1.061
		c0.575-0.293,1.265-0.439,2.069-0.439c0.738,0,1.373,0.126,1.906,0.375c0.531,0.25,0.95,0.526,1.255,0.831L130.17,68.568z"/>
	<polygon fill="#FFFFFF" points="134.275,80.428 134.275,58.922 138.772,56.674 138.772,80.428 	"/>
	<path fill="#FFFFFF" d="M156.824,75.443c0,0.979-0.184,1.81-0.554,2.493c-0.37,0.686-0.869,1.238-1.499,1.662
		c-0.631,0.423-1.369,0.728-2.216,0.912c-0.848,0.184-1.748,0.277-2.705,0.277c-1.367,0-2.677-0.18-3.926-0.537
		c-1.25-0.359-2.329-0.843-3.242-1.451l1.499-3.421c0.912,0.501,1.851,0.885,2.818,1.156c0.967,0.272,2.004,0.407,3.111,0.407
		c0.892,0,1.493-0.107,1.809-0.326c0.314-0.216,0.472-0.542,0.472-0.977c0-0.391-0.18-0.706-0.538-0.945
		c-0.358-0.237-1.015-0.5-1.972-0.781c-1.02-0.305-1.949-0.614-2.785-0.93c-0.836-0.313-1.548-0.684-2.134-1.106
		c-0.587-0.425-1.037-0.94-1.352-1.549c-0.316-0.607-0.473-1.367-0.473-2.28c0-0.892,0.168-1.658,0.505-2.298
		c0.337-0.642,0.809-1.167,1.417-1.58s1.331-0.718,2.167-0.913c0.837-0.195,1.755-0.293,2.754-0.293
		c1.086,0,2.183,0.152,3.291,0.457c1.107,0.303,2.118,0.706,3.031,1.205l-1.436,3.551c-0.847-0.455-1.71-0.797-2.59-1.026
		c-0.88-0.228-1.678-0.342-2.396-0.342c-0.911,0-1.526,0.093-1.84,0.278c-0.315,0.184-0.474,0.461-0.474,0.831
		c0,0.173,0.044,0.331,0.131,0.471c0.087,0.142,0.255,0.284,0.506,0.424c0.249,0.143,0.607,0.299,1.075,0.473
		c0.466,0.175,1.08,0.382,1.84,0.619c0.761,0.262,1.488,0.532,2.185,0.814c0.694,0.284,1.303,0.63,1.824,1.043
		c0.521,0.413,0.934,0.918,1.238,1.515C156.671,73.875,156.824,74.596,156.824,75.443"/>
</g>
</svg>
