<?xml version="1.0" encoding="utf-8"?>
<!-- Generator: Adobe Illustrator 24.2.0, SVG Export Plug-In . SVG Version: 6.00 Build 0)  -->
<svg version="1.1" id="Layer_1" xmlns="http://www.w3.org/2000/svg" xmlns:xlink="http://www.w3.org/1999/xlink" x="0px" y="0px"
	 viewBox="0 0 800 600" enable-background="new 0 0 800 600" xml:space="preserve">
<title>Asset 2</title>
<g id="Layer_2">
	<g id="Railsgirls">
		<path fill="#FFFFFF" d="M42.686,596.018c-2.964,0.216-5.542-2.012-5.758-4.977c-0.019-0.26-0.019-0.521,0-0.782v-58.605
			c-0.418-2.763,1.483-5.341,4.245-5.759c0.501-0.076,1.012-0.076,1.513,0c3.121,0.159,5.624,2.639,5.812,5.759v58.605
			C47.928,593.19,45.622,595.476,42.686,596.018z"/>
		<path fill="#FFFFFF" d="M727.339,372.571h-457.44c-2.965,0.208-5.537-2.026-5.745-4.991c-0.009-0.13-0.013-0.26-0.013-0.391
			V35.627c0-2.906,1.884-4.79,5.758-4.79h457.44c2.518-0.211,4.729,1.658,4.94,4.176c0.018,0.204,0.021,0.409,0.011,0.614v331.294
			C732.445,369.835,730.248,372.342,727.339,372.571z M275.765,361.162h445.924V41.385H275.765V361.162z"/>
		<path fill="#FFFFFF" d="M678.312,326.505H319.087c-2.964,0.218-5.544-2.008-5.762-4.973c-0.021-0.279-0.02-0.56,0.004-0.84V86.752
			c-0.366-2.949,1.729-5.637,4.679-6.002c0.358-0.044,0.72-0.053,1.08-0.025h359.226c2.955,0.257,5.146,2.857,4.896,5.812v234.155
			C683.458,323.648,681.268,326.248,678.312,326.505z M324.899,314.934H672.5V92.511H324.899V314.934z"/>
		<path fill="#FFFFFF" d="M758.337,342.004c-3.12,0.002-5.652-2.526-5.654-5.646c-0.001-0.073,0.001-0.147,0.004-0.22V10.763
			H300.628c-2.906,0-4.79-1.883-4.79-5.758c-0.305-2.448,1.432-4.68,3.88-4.985c0.302-0.038,0.606-0.044,0.91-0.02h457.44
			c2.493-0.123,4.615,1.798,4.738,4.292c0.008,0.166,0.008,0.332-0.003,0.498v331.348
			C763.073,339.044,761.136,342.004,758.337,342.004z"/>
		<path fill="#FFFFFF" d="M727.231,372.571c-1.669-0.152-3.267-0.746-4.629-1.722c-1.893-2.154-1.893-5.38,0-7.534l30.999-29.977
			c2.17-1.796,5.311-1.796,7.48,0c2.016,2.086,2.016,5.396,0,7.481L731.16,370.85C730.069,371.83,728.691,372.434,727.231,372.571z"
			/>
		<path fill="#FFFFFF" d="M727.339,41.385c-1.795,0.207-3.573-0.5-4.736-1.883c-1.909-2.19-1.909-5.453,0-7.642l29.546-29.707
			c2.214-1.843,5.428-1.843,7.642,0c2.05,2.176,2.05,5.573,0,7.75l-28.63,29.599C730.377,40.836,728.874,41.576,727.339,41.385z"/>
		<path fill="#FFFFFF" d="M269.953,41.385c-1.884,0-2.853,0-3.875-1.883c-2.906-1.884-1.883-3.929,0-7.642l30.299-30.46
			c2.215-1.895,5.48-1.895,7.696,0c1.88,2.241,1.88,5.508,0,7.75L273.72,39.502C272.926,40.796,271.465,41.527,269.953,41.385z"/>
		<path fill="#FFFFFF" d="M532.039,541.125L532.039,541.125l-489.354-4.683c-1.884,0-5.758-1.022-5.758-3.659
			c0-1.884,0-4.79,1.883-5.704l227.267-165.056c2.906-0.861,6.781-0.861,7.803,2.045c1.854,2.323,1.474,5.709-0.849,7.563
			c-0.057,0.045-0.115,0.09-0.173,0.133L60.014,525.894l469.011,3.768l194.6-166.831c2.198-1.887,5.444-1.887,7.643,0
			c2.13,2.667,1.723,6.551-0.915,8.718l-195.569,167.8C534.146,540.287,533.156,540.928,532.039,541.125z"/>
		<path fill="#FFFFFF" d="M532.039,600L532.039,600l-489.246-3.982c-3.15,0-5.705-2.554-5.705-5.704
			c0-3.151,2.554-5.705,5.705-5.705l0,0l486.34,3.875l192.663-164.84v-69.962c-0.413-2.763,1.491-5.338,4.255-5.751
			c0.481-0.072,0.969-0.074,1.449-0.007c2.96,0,4.897,1.884,4.897,5.758v72.007c0,1.884,0,3.875-1.937,4.844L534.783,599.031
			C533.922,599.031,532.899,600,532.039,600z"/>
		<path fill="#FFFFFF" d="M532.039,600c-3.12,0.09-5.722-2.366-5.812-5.486c-0.002-0.091-0.003-0.182-0.001-0.272V535.42
			c-0.218-2.964,2.008-5.544,4.972-5.762c0.28-0.021,0.561-0.02,0.841,0.004c2.933,0.257,5.114,2.822,4.896,5.758v58.821
			C537.153,597.178,534.972,599.743,532.039,600z"/>
		<path fill="#FFFFFF" d="M518.477,500.87H162.158c-2.623,0.278-5.061-1.385-5.758-3.929c-0.891-2.121-0.088-4.573,1.883-5.759
			l123.24-93.479c1.022-0.861,1.884-0.861,3.875-0.861h343.51c2.35-0.101,4.424,1.518,4.897,3.821c0.915,1.938,0,3.767-1.991,5.381
			l-110.539,93.749C520.565,500.575,519.527,500.975,518.477,500.87z M178.518,489.246h337.053l98.268-81.855H287.335
			L178.518,489.246z"/>
		<path fill="#FFFFFF" d="M589.354,438.12H247.242c-2.91-0.257-5.084-2.789-4.897-5.705c-0.217-2.936,1.964-5.501,4.897-5.758
			h342.112c3.146-0.179,5.84,2.227,6.019,5.372c0.007,0.129,0.01,0.258,0.009,0.386c0.037,3.121-2.463,5.681-5.584,5.717
			C589.648,438.134,589.501,438.13,589.354,438.12z"/>
		<path fill="#FFFFFF" d="M553.889,468.203H204.565c-2.951-0.336-5.137-2.899-5.005-5.865c0-2.852,2.153-3.768,5.005-5.759h349.323
			c2.959-0.275,5.582,1.899,5.857,4.859c0.027,0.299,0.03,0.6,0.008,0.899c0.281,2.958-1.89,5.585-4.849,5.865
			C554.566,468.235,554.227,468.235,553.889,468.203z"/>
		<path fill="#FFFFFF" d="M234.326,500.87c-1.784-0.096-3.486-0.777-4.844-1.937c-1.833-2.34-1.421-5.723,0.92-7.555
			c0.086-0.068,0.174-0.133,0.265-0.195l108.655-93.479c2.541-1.1,5.48-0.706,7.642,1.022c1.91,1.873,1.94,4.939,0.067,6.85
			c-0.278,0.283-0.589,0.531-0.928,0.738l-108.924,93.479C236.473,500.615,235.398,501.022,234.326,500.87z"/>
		<path fill="#FFFFFF" d="M288.304,500.87c-1.506-0.074-2.912-0.777-3.874-1.937c-1.881-2.241-1.881-5.509,0-7.75l108.763-93.479
			c3.39-0.861,5.812-1.884,8.664,1.022c1.659,2.396,1.267,5.654-0.915,7.588l-108.87,93.479
			C291.21,500.87,289.165,500.87,288.304,500.87z"/>
		<path fill="#FFFFFF" d="M347.986,500.87c-1.77-0.083-3.459-0.767-4.79-1.937c-1.932-2.019-1.861-5.221,0.158-7.152
			c0.233-0.223,0.486-0.423,0.757-0.598l108.925-93.479c2.69-0.861,5.759-1.884,7.642,1.022c1.858,2.047,1.705,5.212-0.343,7.069
			c-0.211,0.192-0.439,0.365-0.68,0.519l-108.816,93.479C350.134,500.615,349.059,501.022,347.986,500.87z"/>
		<path fill="#FFFFFF" d="M401.856,500.87c-1.468-0.103-2.829-0.804-3.767-1.937c-1.998-2.196-1.998-5.553,0-7.75l108.763-93.479
			c3.337-0.861,5.866-1.884,8.719,1.022c1.621,2.415,1.207,5.657-0.969,7.588l-108.817,93.479
			C404.668,500.653,403.257,501.04,401.856,500.87z"/>
		<path fill="#FFFFFF" d="M456.695,500.87c-1.765-0.107-3.446-0.788-4.789-1.937c-1.873-2.308-1.521-5.697,0.788-7.57
			c0.076-0.061,0.154-0.121,0.234-0.18l108.87-93.479c2.547-1.052,5.462-0.662,7.643,1.022c1.915,1.824,1.988,4.856,0.164,6.771
			c-0.303,0.317-0.647,0.593-1.025,0.817l-108.925,93.479C458.935,500.66,457.805,501.072,456.695,500.87z"/>
		<path fill="#FFFFFF" d="M556.148,180.931l10.387,10.44l-10.764,10.763l-10.44-10.441l10.44-10.44l0,0"/>
		<path fill="#FFFFFF" d="M545.44,212.467l10.44,10.44l-10.764,10.764l-10.44-10.44l10.44-10.44l0,0"/>
		<path fill="#FFFFFF" d="M534.891,223.016l10.441,10.441l-10.763,10.763l-10.226-10.656l10.44-10.441l0,0"/>
		<path fill="#FFFFFF" d="M513.902,223.123l10.44,10.441l-10.763,10.763l-10.44-10.44l10.44-10.44l0,0"/>
		<path fill="#FFFFFF" d="M492.914,223.231l10.44,10.44l-10.763,10.763l-10.44-10.441l10.44-10.44l0,0"/>
		<path fill="#FFFFFF" d="M482.474,212.791l10.44,10.44l-10.763,10.763l-10.226-10.656l10.387-10.441l0,0"/>
		<path fill="#FFFFFF" d="M471.979,202.296l10.44,10.44L471.656,223.5l-10.44-10.44l10.44-10.441l0,0"/>
		<path fill="#FFFFFF" d="M472.195,181.416l10.386,10.386l-10.763,10.764l-10.44-10.44l10.44-10.387l0,0"/>
		<path fill="#FFFFFF" d="M472.303,160.427l10.387,10.387l-10.764,10.763l-10.44-10.44l10.44-10.44l0,0"/>
		<path fill="#FFFFFF" d="M482.851,149.879l10.387,10.387l-10.764,10.763l-10.225-10.656l10.44-10.44l0,0"/>
		<path fill="#FFFFFF" d="M555.987,201.919l10.44,10.441l-10.764,10.763l-10.44-10.44l10.44-10.44l0,0"/>
		<path fill="#FFFFFF" d="M471.818,223.285l10.44,10.387l-10.764,10.763l-10.44-10.441l10.44-10.44l0,0"/>
		<path fill="#FFFFFF" d="M461.324,233.833l10.387,10.44l-10.764,10.763l-10.441-10.44l10.441-10.44l0,0"/>
		<path fill="#FFFFFF" d="M471.711,244.219l10.386,10.441l-10.763,10.763l-10.44-10.441l10.44-10.44l0,0"/>
		<path fill="#FFFFFF" d="M450.884,223.392l10.387,10.44l-10.764,10.763l-9.956-10.655l10.44-10.44l0,0"/>
		<path fill="#FFFFFF" d="M450.775,244.435l10.387,10.387l-10.763,10.763l-10.44-10.441l10.44-10.44l0,0"/>
		<path fill="#FFFFFF" d="M493.398,139.331l10.387,10.386l-10.764,10.764l-10.44-10.44l10.44-10.44l0,0"/>
		<path fill="#FFFFFF" d="M514.387,139.223l10.387,10.387l-10.764,10.763l-10.439-10.44l10.439-10.44l0,0"/>
		<path fill="#FFFFFF" d="M535.268,139.008l10.44,10.387l-10.763,10.763l-10.44-10.386l10.44-10.44l0,0"/>
		<path fill="#FFFFFF" d="M545.762,149.502l10.44,10.387l-10.763,10.764l-10.44-10.44l10.44-10.44l0,0"/>
		<path fill="#FFFFFF" d="M556.256,159.942l10.387,10.44l-10.763,10.764l-10.44-10.44l10.44-10.441l0,0"/>
	</g>
</g>
</svg>
